<?xml version="1.0" standalone="no"?>
<!DOCTYPE svg PUBLIC "-//W3C//DTD SVG 20010904//EN"
 "http://www.w3.org/TR/2001/REC-SVG-20010904/DTD/svg10.dtd">
<svg version="1.0" xmlns="http://www.w3.org/2000/svg"
 width="121.000000pt" height="129.000000pt" viewBox="0 0 121.000000 129.000000"
 preserveAspectRatio="xMidYMid meet">

<g transform="translate(0.000000,129.000000) scale(0.100000,-0.100000)"
fill="#000000" stroke="none">
<path d="M357 1118 c-220 -239 -284 -333 -308 -446 -58 -279 203 -546 483
-494 135 25 261 119 313 234 26 57 51 179 41 203 -4 10 9 21 43 36 54 23 117
81 107 98 -11 17 -22 13 -53 -15 -48 -45 -84 -58 -153 -59 -54 0 -73 5 -113
28 -157 92 -149 314 13 397 75 38 203 19 254 -39 21 -23 56 -28 56 -8 0 21
-51 64 -104 88 -58 25 -155 28 -208 6 -19 -8 -52 -30 -72 -48 l-38 -33 -65 72
c-45 50 -72 72 -88 72 -17 0 -48 -27 -108 -92z m159 -10 c77 -81 76 -79 59
-128 -54 -152 55 -324 219 -346 l49 -7 -6 -63 c-10 -129 -94 -252 -213 -310
-53 -26 -69 -29 -159 -29 -87 0 -107 3 -157 27 -79 37 -142 98 -181 177 -30
61 -32 73 -32 166 0 147 20 181 274 467 47 54 88 98 91 98 3 0 28 -24 56 -52z"/>
<path d="M206 781 c-32 -35 -58 -122 -58 -194 0 -124 71 -230 189 -284 63 -29
146 -29 151 -1 2 12 -5 19 -25 23 -126 25 -171 50 -224 127 -27 41 -33 59 -37
123 -4 69 -2 80 27 140 18 36 29 69 26 75 -10 16 -30 12 -49 -9z"/>
<path d="M769 1025 c-80 -44 -90 -179 -18 -240 34 -28 96 -34 138 -12 58 29
83 136 48 204 -29 54 -112 78 -168 48z m114 -57 c25 -29 23 -108 -4 -142 -36
-46 -99 -31 -119 30 -34 102 58 186 123 112z"/>
<path d="M1057 984 c-4 -4 -7 -20 -7 -35 0 -24 -4 -28 -32 -31 -44 -4 -45 -32
-1 -36 28 -3 32 -7 35 -35 2 -24 8 -32 23 -32 15 0 21 8 23 32 3 28 7 32 35
35 20 2 32 8 32 18 0 10 -12 16 -32 18 -28 3 -32 7 -35 35 -3 30 -25 47 -41
31z"/>
</g>
</svg>
