<?xml version="1.0" standalone="no"?>
<!DOCTYPE svg PUBLIC "-//W3C//DTD SVG 20010904//EN"
 "http://www.w3.org/TR/2001/REC-SVG-20010904/DTD/svg10.dtd">
<svg version="1.0" xmlns="http://www.w3.org/2000/svg"
 width="121.000000pt" height="129.000000pt" viewBox="0 0 121.000000 129.000000"
 preserveAspectRatio="xMidYMid meet">

<g transform="translate(0.000000,129.000000) scale(0.100000,-0.100000)"
fill="#000000" stroke="none">
<path d="M380 1028 c-145 -156 -263 -304 -296 -373 -92 -192 -26 -420 154
-533 78 -49 142 -65 246 -60 76 3 102 9 158 35 86 41 160 113 199 197 29 63
54 175 46 207 -3 13 7 22 41 35 83 31 164 127 132 157 -9 9 -15 8 -24 -7 -50
-84 -119 -125 -209 -126 -181 0 -285 196 -184 347 90 134 285 133 376 -2 26
-39 51 -46 51 -15 0 27 -74 106 -125 133 -30 16 -58 22 -115 22 -64 0 -82 -4
-127 -29 -29 -16 -60 -37 -68 -46 -15 -16 -21 -12 -87 56 -39 41 -78 74 -86
74 -8 0 -45 -33 -82 -72z m159 -60 l52 -56 -15 -47 c-35 -101 -7 -206 75 -279
50 -45 80 -59 153 -71 l39 -6 -6 -67 c-9 -92 -52 -176 -122 -241 -76 -69 -146
-95 -255 -95 -74 -1 -93 3 -150 30 -80 37 -149 105 -187 182 -25 51 -28 68
-28 157 0 127 20 173 135 311 166 198 232 266 245 252 6 -7 35 -39 64 -70z"/>
<path d="M214 672 c-60 -59 -83 -200 -49 -301 36 -108 158 -203 265 -205 48
-1 55 1 55 18 0 16 -12 22 -63 32 -68 14 -112 37 -154 81 -79 83 -91 232 -26
325 10 14 18 33 18 41 0 23 -27 28 -46 9z"/>
<path d="M751 895 c-76 -64 -61 -205 26 -241 42 -18 67 -18 107 1 44 21 66 63
66 125 0 92 -41 140 -121 140 -36 0 -55 -6 -78 -25z m128 -39 c17 -18 23 -36
23 -69 0 -55 -15 -85 -48 -97 -67 -26 -122 51 -94 134 19 60 78 75 119 32z"/>
<path d="M986 792 c-14 -24 14 -33 95 -30 67 2 84 6 84 18 0 12 -18 16 -87 18
-47 1 -89 -1 -92 -6z"/>
</g>
</svg>
