<?xml version="1.0" standalone="no"?>
<!DOCTYPE svg PUBLIC "-//W3C//DTD SVG 20010904//EN"
 "http://www.w3.org/TR/2001/REC-SVG-20010904/DTD/svg10.dtd">
<svg version="1.0" xmlns="http://www.w3.org/2000/svg"
 width="122.000000pt" height="129.000000pt" viewBox="0 0 122.000000 129.000000"
 preserveAspectRatio="xMidYMid meet">

<g transform="translate(0.000000,129.000000) scale(0.100000,-0.100000)"
fill="#000000" stroke="none">
<path d="M428 1183 c-88 -80 -299 -337 -334 -409 -126 -253 34 -553 318 -597
227 -35 445 128 477 357 5 36 7 74 4 86 -4 14 -1 20 11 20 45 0 156 86 142
109 -12 18 -27 13 -67 -23 -66 -60 -162 -70 -247 -27 -49 25 -76 56 -103 115
-63 143 47 306 206 306 66 0 119 -20 162 -62 30 -29 53 -31 53 -3 0 19 -57 64
-110 88 -54 24 -148 26 -201 4 -19 -8 -52 -29 -73 -48 l-38 -33 -72 77 c-39
42 -75 77 -79 77 -4 0 -26 -17 -49 -37z m88 -65 c89 -96 85 -88 68 -138 -53
-152 57 -324 222 -347 l47 -6 -6 -65 c-13 -130 -97 -251 -215 -309 -51 -25
-68 -28 -157 -28 -87 0 -107 3 -157 27 -79 37 -142 98 -181 177 -30 61 -32 73
-32 166 0 89 3 106 27 155 15 31 57 91 93 135 89 106 239 275 245 275 3 0 24
-19 46 -42z"/>
<path d="M217 782 c-35 -39 -60 -115 -61 -187 0 -160 114 -293 271 -314 39 -6
56 -4 64 6 18 21 -6 40 -61 46 -61 7 -99 27 -146 74 -82 81 -98 201 -43 311
17 34 28 66 24 72 -9 15 -30 12 -48 -8z"/>
<path d="M818 1048 c-16 -13 -98 -221 -98 -250 0 -20 26 -30 38 -15 5 7 13 22
16 35 6 19 14 22 61 22 50 0 55 -2 61 -25 8 -34 42 -53 51 -29 11 29 -78 264
-102 271 -6 2 -18 -2 -27 -9z m48 -142 c6 -24 4 -26 -30 -26 -41 0 -42 0 -19
66 l17 49 12 -31 c7 -17 16 -43 20 -58z"/>
<path d="M1067 984 c-4 -4 -7 -20 -7 -35 0 -24 -4 -28 -32 -31 -44 -4 -45 -32
-1 -36 28 -3 32 -7 35 -35 2 -24 8 -32 23 -32 15 0 21 8 23 32 3 28 7 32 35
35 20 2 32 8 32 18 0 10 -12 16 -32 18 -28 3 -32 7 -35 35 -3 30 -25 47 -41
31z"/>
</g>
</svg>
