<?xml version="1.0" standalone="no"?>
<!DOCTYPE svg PUBLIC "-//W3C//DTD SVG 20010904//EN"
 "http://www.w3.org/TR/2001/REC-SVG-20010904/DTD/svg10.dtd">
<svg version="1.0" xmlns="http://www.w3.org/2000/svg"
 width="122.000000pt" height="129.000000pt" viewBox="0 0 122.000000 129.000000"
 preserveAspectRatio="xMidYMid meet">

<g transform="translate(0.000000,129.000000) scale(0.100000,-0.100000)"
fill="#000000" stroke="none">
<path d="M398 1038 c-93 -99 -268 -309 -294 -353 -38 -65 -57 -159 -51 -244
11 -145 111 -286 247 -350 49 -23 68 -26 170 -26 109 0 119 2 182 32 87 41
160 114 199 198 30 62 54 180 43 208 -3 9 9 19 38 30 85 33 170 130 139 159
-11 11 -15 9 -25 -6 -54 -91 -128 -131 -230 -124 -121 7 -201 95 -201 218 2
210 244 307 384 155 23 -25 41 -49 41 -55 0 -5 9 -10 20 -10 33 0 23 34 -25
88 -86 95 -213 117 -324 57 -28 -16 -58 -36 -67 -46 -16 -17 -20 -15 -86 56
-39 41 -77 75 -86 75 -9 0 -42 -28 -74 -62z m145 -64 l56 -60 -15 -50 c-19
-61 -13 -146 14 -200 41 -81 115 -132 216 -149 l39 -6 -6 -57 c-9 -97 -43
-169 -111 -238 -81 -81 -148 -108 -266 -108 -75 -1 -93 3 -152 31 -81 38 -146
102 -185 181 -25 51 -28 68 -28 157 0 93 2 105 32 165 43 86 328 421 343 403
3 -4 32 -35 63 -69z"/>
<path d="M224 672 c-10 -9 -29 -41 -42 -71 -88 -191 55 -431 258 -435 49 -1
55 1 55 19 0 16 -9 21 -48 27 -101 14 -200 91 -225 176 -25 83 -4 221 37 246
16 10 14 43 -4 50 -8 3 -22 -2 -31 -12z"/>
<path d="M812 928 c-15 -18 -92 -227 -92 -249 0 -32 37 -23 49 11 9 29 13 30
66 30 53 0 57 -1 66 -30 13 -37 49 -42 49 -7 -1 12 -20 74 -44 137 -33 90 -47
116 -63 118 -11 2 -25 -3 -31 -10z m52 -135 c7 -21 4 -23 -28 -23 -20 0 -36 1
-36 3 0 2 8 26 17 53 l17 49 12 -30 c6 -17 15 -40 18 -52z"/>
<path d="M995 790 c-14 -23 13 -31 96 -28 67 2 84 6 84 18 0 12 -18 16 -87 18
-56 2 -89 -1 -93 -8z"/>
</g>
</svg>
