<?xml version="1.0" standalone="no"?>
<!DOCTYPE svg PUBLIC "-//W3C//DTD SVG 20010904//EN"
 "http://www.w3.org/TR/2001/REC-SVG-20010904/DTD/svg10.dtd">
<svg version="1.0" xmlns="http://www.w3.org/2000/svg"
 width="122.000000pt" height="129.000000pt" viewBox="0 0 122.000000 129.000000"
 preserveAspectRatio="xMidYMid meet">

<g transform="translate(0.000000,129.000000) scale(0.100000,-0.100000)"
fill="#000000" stroke="none">
<path d="M384 1142 c-224 -247 -288 -334 -315 -424 -75 -247 80 -497 335 -541
239 -41 470 142 484 384 l4 77 37 11 c37 11 121 75 121 92 0 25 -33 18 -70
-13 -88 -76 -202 -76 -291 1 -159 136 -65 391 144 391 68 0 110 -16 159 -59
29 -25 38 -28 47 -17 17 20 -19 60 -84 91 -96 47 -203 36 -290 -30 l-44 -34
-64 69 c-83 90 -94 90 -173 2z m154 -49 c59 -68 59 -68 46 -103 -22 -62 -17
-149 12 -208 43 -87 143 -152 232 -152 24 0 24 -1 18 -61 -16 -143 -97 -259
-218 -315 -56 -26 -74 -29 -158 -29 -84 0 -102 3 -158 29 -43 20 -80 47 -116
87 -71 77 -99 147 -99 254 -1 132 30 184 266 453 54 61 103 112 107 112 4 0
35 -30 68 -67z"/>
<path d="M203 766 c-127 -197 1 -468 230 -484 57 -4 59 -4 55 19 -3 21 -10 25
-55 30 -130 16 -226 126 -227 260 -1 55 4 76 31 129 18 34 30 66 27 71 -11 19
-40 7 -61 -25z"/>
<path d="M721 978 c-45 -119 -59 -168 -51 -173 14 -8 30 3 30 21 0 10 12 14
44 14 35 0 45 -4 49 -20 6 -22 37 -28 36 -7 0 6 -15 50 -32 97 -34 90 -59 112
-76 68z m49 -95 c0 -7 -12 -13 -26 -13 -20 0 -25 4 -20 16 3 9 9 28 13 42 l6
27 13 -30 c7 -16 13 -36 14 -42z"/>
<path d="M850 900 l0 -100 48 0 c35 0 54 5 65 18 21 23 22 56 3 71 -11 9 -12
18 -2 42 10 28 9 33 -13 50 -14 11 -39 19 -62 19 l-39 0 0 -100z m78 43 c3
-19 -1 -23 -22 -23 -21 0 -26 5 -26 26 0 21 4 25 23 22 14 -2 23 -11 25 -25z
m10 -70 c14 -27 3 -43 -29 -43 -26 0 -29 4 -29 30 0 25 4 30 25 30 13 0 28 -8
33 -17z"/>
<path d="M1067 983 c-4 -3 -7 -19 -7 -34 0 -24 -4 -28 -32 -31 -22 -2 -34 -9
-36 -20 -3 -15 4 -18 32 -18 34 0 36 -2 36 -35 0 -28 4 -35 19 -35 15 0 21 8
23 33 3 28 7 32 36 35 24 2 32 8 32 23 0 15 -7 19 -35 19 -33 0 -35 2 -35 35
0 33 -16 46 -33 28z"/>
</g>
</svg>
