<?xml version="1.0" standalone="no"?>
<!DOCTYPE svg PUBLIC "-//W3C//DTD SVG 20010904//EN"
 "http://www.w3.org/TR/2001/REC-SVG-20010904/DTD/svg10.dtd">
<svg version="1.0" xmlns="http://www.w3.org/2000/svg"
 width="122.000000pt" height="129.000000pt" viewBox="0 0 122.000000 129.000000"
 preserveAspectRatio="xMidYMid meet">

<g transform="translate(0.000000,129.000000) scale(0.100000,-0.100000)"
fill="#000000" stroke="none">
<path d="M337 973 c-245 -276 -278 -329 -285 -469 -8 -155 58 -292 181 -375
84 -55 149 -72 262 -67 78 3 102 8 157 36 63 31 139 98 178 157 30 45 60 150
60 210 l0 52 45 17 c48 19 129 92 140 127 4 12 2 26 -5 33 -9 8 -16 5 -30 -14
-11 -14 -28 -37 -40 -52 -50 -66 -181 -89 -267 -47 -143 69 -166 266 -44 370
91 79 205 77 296 -3 24 -21 47 -48 50 -58 7 -22 45 -28 45 -7 0 21 -54 92 -90
117 -37 26 -110 50 -155 50 -54 0 -129 -28 -172 -64 l-40 -35 -67 74 c-38 43
-76 75 -86 75 -11 0 -64 -50 -133 -127z m201 2 l61 -65 -14 -35 c-8 -19 -15
-58 -15 -88 0 -146 90 -247 243 -272 42 -7 43 -10 26 -101 -54 -292 -398 -411
-621 -214 -57 49 -103 137 -119 222 -10 57 -10 76 4 134 21 82 45 125 132 229
93 112 225 255 235 255 4 0 35 -29 68 -65z"/>
<path d="M201 644 c-123 -193 1 -454 228 -481 38 -4 55 -2 61 7 15 24 -1 37
-50 43 -188 22 -292 225 -202 391 24 45 29 62 21 73 -18 21 -28 16 -58 -33z"/>
<path d="M719 853 c-39 -100 -57 -158 -53 -165 10 -15 25 -8 34 17 8 20 16 25
45 25 28 0 38 -5 47 -25 12 -26 23 -31 32 -16 6 9 -33 132 -53 170 -16 29 -39
26 -52 -6z m46 -65 c6 -25 5 -28 -19 -28 -30 0 -29 -2 -15 39 12 35 24 31 34
-11z"/>
<path d="M848 870 c-1 -5 -2 -50 0 -100 l3 -90 45 0 c70 0 108 54 68 95 -13
12 -14 19 -5 28 16 16 13 42 -7 60 -20 18 -98 24 -104 7z m80 -42 c-2 -15 -11
-24 -25 -26 -19 -3 -23 1 -23 22 0 21 5 26 26 26 21 0 25 -4 22 -22z m15 -70
c8 -22 -13 -48 -38 -48 -21 0 -25 5 -25 30 0 26 3 30 29 30 16 0 31 -6 34 -12z"/>
<path d="M992 783 c3 -15 17 -18 91 -21 82 -3 87 -2 87 18 0 19 -6 20 -91 20
-81 0 -90 -2 -87 -17z"/>
</g>
</svg>
