<?xml version="1.0" standalone="no"?>
<!DOCTYPE svg PUBLIC "-//W3C//DTD SVG 20010904//EN"
 "http://www.w3.org/TR/2001/REC-SVG-20010904/DTD/svg10.dtd">
<svg version="1.0" xmlns="http://www.w3.org/2000/svg"
 width="121.000000pt" height="129.000000pt" viewBox="0 0 121.000000 129.000000"
 preserveAspectRatio="xMidYMid meet">

<g transform="translate(0.000000,129.000000) scale(0.100000,-0.100000)"
fill="#000000" stroke="none">
<path d="M363 1123 c-144 -159 -242 -282 -272 -341 -128 -254 23 -551 307
-604 171 -32 362 64 441 221 31 61 51 140 51 199 0 34 4 39 34 50 52 19 116
70 116 92 0 28 -13 25 -65 -15 -101 -77 -218 -71 -305 17 -91 90 -84 240 14
325 46 41 95 56 171 51 51 -3 70 -9 100 -33 74 -59 74 -59 81 -41 9 23 -37 69
-95 97 -90 42 -221 21 -293 -48 l-27 -26 -67 71 c-45 49 -73 72 -89 72 -16 0
-46 -26 -102 -87z m171 -31 l59 -62 -14 -43 c-31 -94 -11 -194 54 -265 49 -52
100 -80 163 -89 l46 -6 -4 -67 c-21 -285 -353 -437 -590 -271 -104 73 -166
207 -156 336 10 115 67 204 290 448 44 48 83 87 87 85 3 -2 33 -31 65 -66z"/>
<path d="M212 788 c-5 -7 -20 -33 -33 -58 -20 -37 -24 -60 -24 -135 0 -75 4
-98 24 -139 46 -93 128 -156 227 -173 62 -11 84 -7 84 17 0 20 -19 30 -58 30
-68 1 -165 69 -205 145 -34 63 -31 173 7 247 15 31 25 61 22 67 -9 15 -31 14
-44 -1z"/>
<path d="M747 1033 c-4 -3 -7 -66 -7 -140 l0 -133 65 0 c75 0 108 13 124 47
16 36 14 51 -14 79 -24 24 -24 26 -9 49 22 33 11 71 -26 90 -29 15 -121 21
-133 8z m111 -45 c30 -30 -3 -73 -51 -66 -17 2 -22 10 -23 33 0 17 1 33 3 38
7 11 58 8 71 -5z m-4 -104 c26 -10 38 -41 26 -64 -8 -15 -21 -20 -54 -20 l-43
0 2 43 c1 23 3 43 4 45 2 4 50 2 65 -4z"/>
<path d="M1060 956 c0 -34 -2 -36 -35 -36 -28 0 -35 -4 -35 -19 0 -15 8 -21
33 -23 28 -3 32 -7 35 -35 2 -25 8 -33 23 -33 15 0 19 7 19 35 0 33 2 35 36
35 28 0 35 3 32 18 -2 11 -14 18 -35 20 -28 3 -32 7 -35 35 -2 21 -9 33 -20
35 -15 3 -18 -4 -18 -32z"/>
</g>
</svg>
