<?xml version="1.0" standalone="no"?>
<!DOCTYPE svg PUBLIC "-//W3C//DTD SVG 20010904//EN"
 "http://www.w3.org/TR/2001/REC-SVG-20010904/DTD/svg10.dtd">
<svg version="1.0" xmlns="http://www.w3.org/2000/svg"
 width="121.000000pt" height="129.000000pt" viewBox="0 0 121.000000 129.000000"
 preserveAspectRatio="xMidYMid meet">

<g transform="translate(0.000000,129.000000) scale(0.100000,-0.100000)"
fill="#000000" stroke="none">
<path d="M361 1003 c-148 -161 -239 -274 -271 -338 -63 -128 -60 -259 7 -388
43 -81 104 -138 193 -181 55 -26 79 -32 157 -34 140 -6 242 35 332 133 66 72
111 185 111 281 0 39 2 43 40 58 70 28 155 119 143 154 -5 14 -33 16 -33 2 0
-18 -73 -91 -111 -111 -47 -23 -135 -25 -187 -3 -131 54 -177 218 -95 337 64
93 198 122 296 64 26 -15 59 -46 74 -68 25 -38 46 -49 57 -30 12 20 -59 105
-114 135 -48 27 -65 31 -130 31 -82 0 -122 -15 -176 -66 l-31 -30 -71 76 c-39
41 -78 75 -86 75 -8 0 -55 -44 -105 -97z m179 -33 l50 -58 -16 -62 c-18 -70
-12 -123 18 -185 40 -80 101 -125 199 -146 l52 -11 -5 -67 c-9 -128 -92 -246
-213 -303 -149 -69 -318 -37 -431 84 -110 117 -133 274 -63 423 21 45 91 133
242 302 102 115 88 114 167 23z"/>
<path d="M201 650 c-39 -54 -55 -117 -49 -198 9 -124 88 -228 206 -272 68 -26
127 -24 127 4 0 16 -12 22 -64 32 -35 7 -81 25 -102 38 -115 76 -151 231 -84
355 44 79 17 112 -34 41z"/>
<path d="M742 783 l3 -138 72 0 c59 0 76 4 92 20 33 34 36 68 8 101 -22 26
-23 32 -11 49 20 28 17 53 -11 80 -21 22 -33 25 -90 25 l-66 0 3 -137z m118
82 c6 -8 9 -23 5 -35 -5 -15 -15 -20 -45 -20 -37 0 -38 1 -38 35 0 33 2 35 33
35 18 0 38 -7 45 -15z m14 -111 c34 -33 3 -74 -56 -74 -37 0 -38 1 -38 38 0
21 3 42 7 45 12 13 72 7 87 -9z"/>
<path d="M990 780 c0 -20 5 -21 87 -18 74 3 88 6 91 21 3 15 -6 17 -87 17 -85
0 -91 -1 -91 -20z"/>
</g>
</svg>
